<?xml version="1.0" encoding="UTF-8" standalone="no"?>
<svg
   version="1.1"
   id="Layer_1"
   x="0px"
   y="0px"
   width="296.99997mm"
   viewBox="0 0 1122.5196 793.7008"
   enable-background="new 0 0 1254 1254"
   xml:space="preserve"
   height="210mm"
   sodipodi:docname="chronoseal.svg"
   inkscape:export-filename="logo1.png"
   inkscape:export-xdpi="96"
   inkscape:export-ydpi="96"
   inkscape:version="1.4.4 (dcaf3e7d9e, 2026-05-05)"
   xmlns:inkscape="http://www.inkscape.org/namespaces/inkscape"
   xmlns:sodipodi="http://sodipodi.sourceforge.net/DTD/sodipodi-0.dtd"
   xmlns="http://www.w3.org/2000/svg"
   xmlns:svg="http://www.w3.org/2000/svg"><sodipodi:namedview
   id="namedview1"
   pagecolor="#ffffff"
   bordercolor="#000000"
   borderopacity="0.25"
   inkscape:showpageshadow="2"
   inkscape:pageopacity="0.0"
   inkscape:pagecheckerboard="0"
   inkscape:deskcolor="#d1d1d1"
   inkscape:document-units="mm"
   inkscape:zoom="1.1654266"
   inkscape:cx="561.16791"
   inkscape:cy="396.85039"
   inkscape:window-width="2048"
   inkscape:window-height="1205"
   inkscape:window-x="0"
   inkscape:window-y="0"
   inkscape:window-maximized="1"
   inkscape:current-layer="Layer_1" /><defs
   id="defs44" />












































<path
   fill="none"
   opacity="0"
   stroke="none"
   d="m 791.89377,632.01366 c 1.04068,-1.03091 1.90903,-2.38956 3.14896,-3.04166 11.48425,-6.03955 22.98721,-12.04745 34.57742,-17.88034 8.52002,-4.28775 14.37558,-10.49713 14.23218,-20.46771 -0.14127,-9.82202 -6.25309,-15.51495 -14.66742,-19.5827 -61.76651,-29.85993 -123.47361,-59.84277 -185.21183,-89.76129 -10.48242,-5.07981 -20.81335,-10.5555 -31.58477,-14.93764 -19.71186,-8.01936 -39.87799,-8.40881 -59.18305,0.84148 -71.77527,34.39209 -143.33667,69.23047 -215.00567,103.84463 -8.40815,4.06091 -14.32166,9.84101 -14.39978,19.74008 -0.079,10.00498 5.52282,16.22797 14.08978,20.54743 12.3277,6.21567 24.51239,12.71484 37.34228,19.41369 7.51429,3.93381 14.42273,7.5896 21.37854,11.15274 31.68775,16.23208 63.40558,32.40548 95.07782,48.66778 14.943,7.6726 29.74964,15.6123 44.73053,23.2091 8.44464,4.2823 16.79547,9.1534 25.75525,11.9324 18.81989,5.8372 37.10712,3.9335 54.83185,-5.5578 25.51599,-13.6634 51.41541,-26.6141 77.2135,-39.7465 30.82071,-15.6894 61.7009,-31.26196 92.58359,-46.82907 1.56006,-0.78641 3.38776,-1.0419 5.09082,-1.54462 z"
   id="path2" /><path
   fill="#4b4d51"
   opacity="1"
   stroke="none"
   d="m 791.89376,550.60089 c 1.04068,-1.03091 1.90903,-2.38956 3.14896,-3.04166 11.48425,-6.03955 22.98721,-12.04745 34.57742,-17.88034 8.52002,-4.28775 14.37558,-10.49713 14.23218,-20.46771 -0.14127,-9.82202 -6.25309,-15.51495 -14.66742,-19.5827 -61.76651,-29.85993 -123.47361,-59.84277 -185.21183,-89.76129 -10.48242,-5.07981 -20.81335,-10.5555 -31.58477,-14.93764 -19.71186,-8.01936 -39.87799,-8.40881 -59.18305,0.84148 -71.77522,34.39209 -143.33662,69.23047 -215.00562,103.84463 -8.4082,4.06091 -14.3217,9.84101 -14.3998,19.74008 -0.079,10.00498 5.5228,16.22797 14.0898,20.54743 12.3277,6.21567 24.5123,12.71484 37.3422,19.41369 7.5143,3.93381 14.4228,7.5896 21.3786,11.15274 31.6877,16.23212 63.4056,32.40552 95.0778,48.66782 14.943,7.67261 29.7496,15.61227 44.73052,23.20911 8.44464,4.28232 16.79547,9.15341 25.75525,11.93237 18.81989,5.83722 37.10712,3.93353 54.83185,-5.55777 25.51599,-13.66336 51.41541,-26.61407 77.2135,-39.74655 30.82071,-15.68933 61.7009,-31.26196 92.58359,-46.82907 1.56006,-0.78641 3.38776,-1.0419 5.09082,-1.54462 z"
   id="path45"
   style="fill:#e1e1e4;fill-opacity:1" /><path
   fill="#4b4d51"
   opacity="1"
   stroke="none"
   d="m 791.89377,469.18814 c 1.04068,-1.03091 1.90903,-2.38956 3.14896,-3.04166 11.48425,-6.03955 22.98721,-12.04745 34.57742,-17.88034 8.52002,-4.28775 14.37558,-10.49713 14.23218,-20.46771 -0.14127,-9.82202 -6.25309,-15.51495 -14.66742,-19.5827 C 767.4184,378.3558 705.7113,348.37296 643.97308,318.45444 c -10.48242,-5.07981 -20.81335,-10.5555 -31.58477,-14.93764 -19.71186,-8.01936 -39.87799,-8.40881 -59.18305,0.84148 -71.77527,34.39209 -143.33667,69.23047 -215.00567,103.84463 -8.40815,4.06091 -14.32166,9.84101 -14.39978,19.74008 -0.079,10.00498 5.52282,16.22797 14.08978,20.54743 12.3277,6.21567 24.51239,12.71484 37.34228,19.41369 7.51429,3.93381 14.42273,7.5896 21.37854,11.15274 31.68775,16.23212 63.40558,32.40552 95.07782,48.66782 14.943,7.67261 29.74964,15.61227 44.73053,23.20911 8.44464,4.28232 16.79547,9.15341 25.75525,11.93237 18.81989,5.83722 37.10712,3.93353 54.83185,-5.55777 25.51599,-13.66336 51.41541,-26.61407 77.2135,-39.74655 30.82071,-15.68933 61.7009,-31.26196 92.58359,-46.82907 1.56006,-0.78641 3.38776,-1.0419 5.09082,-1.54462 z"
   id="path46"
   style="fill:#b0b2b8;fill-opacity:1" /><path
   fill="#4b4d51"
   opacity="1"
   stroke="none"
   d="m 791.89377,387.77539 c 1.04068,-1.03091 1.90903,-2.38956 3.14896,-3.04166 11.48425,-6.03955 22.98721,-12.04745 34.57742,-17.88034 8.52002,-4.28775 14.37558,-10.49713 14.23218,-20.46771 -0.14127,-9.82202 -6.25309,-15.51495 -14.66742,-19.5827 -61.76651,-29.85993 -123.47361,-59.84277 -185.21183,-89.76129 -10.48242,-5.07981 -20.81335,-10.5555 -31.58477,-14.93764 -19.71186,-8.01936 -39.87799,-8.40881 -59.18305,0.84148 -71.77527,34.39209 -143.33667,69.23047 -215.00567,103.84463 -8.40815,4.06091 -14.32166,9.84101 -14.39978,19.74008 -0.079,10.00498 5.52282,16.22797 14.08978,20.54743 12.3277,6.21567 24.51239,12.71484 37.34228,19.41369 7.51429,3.93381 14.42273,7.5896 21.37854,11.15274 31.68775,16.23212 63.40558,32.40552 95.07782,48.66782 14.943,7.67261 29.74964,15.61227 44.73053,23.20911 8.44464,4.28232 16.79547,9.15341 25.75525,11.93237 18.81989,5.83722 37.10712,3.93353 54.83185,-5.55777 25.51599,-13.66336 51.41541,-26.61407 77.2135,-39.74655 30.82071,-15.68933 61.7009,-31.26196 92.58359,-46.82907 1.56006,-0.78641 3.38776,-1.0419 5.09082,-1.54462 z"
   id="path47"
   style="fill:#7b7e85;fill-opacity:1" /><text
   xml:space="preserve"
   style="font-style:normal;font-variant:normal;font-weight:normal;font-stretch:normal;font-size:160px;font-family:'URW Gothic';-inkscape-font-specification:'URW Gothic, Normal';font-variant-ligatures:normal;font-variant-caps:normal;font-variant-numeric:normal;font-variant-east-asian:normal;writing-mode:lr-tb;direction:ltr;fill:#e1e1e4;fill-opacity:1;stroke-width:39.1"
   x="154.54701"
   y="550.13623"
   id="text47"><tspan
     id="tspan47"
     x="154.54701"
     y="550.13623" /><tspan
     id="tspan48"
     x="154.54701"
     y="750.13623"
     style="font-style:normal;font-variant:normal;font-weight:600;font-stretch:normal;font-size:160px;font-family:'URW Gothic';-inkscape-font-specification:'URW Gothic, Semi-Bold';font-variant-ligatures:normal;font-variant-caps:normal;font-variant-numeric:normal;font-variant-east-asian:normal"><tspan
   style="font-style:normal;font-variant:normal;font-weight:600;font-stretch:normal;font-size:160px;font-family:'URW Gothic';-inkscape-font-specification:'URW Gothic, Semi-Bold';font-variant-ligatures:normal;font-variant-caps:normal;font-variant-numeric:normal;font-variant-east-asian:normal;fill:#1f2024;fill-opacity:1"
   id="tspan49">chrono</tspan>seal</tspan></text><path
   fill="#4b4d51"
   opacity="1"
   stroke="none"
   d="m 791.89376,306.36264 c 1.04068,-1.03091 1.90903,-2.38956 3.14896,-3.04166 11.48425,-6.03955 22.98721,-12.04745 34.57742,-17.88034 8.52002,-4.28775 14.37558,-10.49713 14.23218,-20.46771 -0.14127,-9.82202 -6.25309,-15.51495 -14.66742,-19.5827 -61.76651,-29.85993 -123.47361,-59.84277 -185.21183,-89.76129 -10.48242,-5.07981 -20.81335,-10.5555 -31.58477,-14.93764 -19.71186,-8.01936 -39.87799,-8.40881 -59.18305,0.84148 -71.77522,34.39209 -143.33662,69.23047 -215.00562,103.84463 -8.4082,4.06091 -14.3217,9.84101 -14.3998,19.74008 -0.079,10.00498 5.5228,16.22797 14.0898,20.54743 12.3277,6.21567 24.5123,12.71484 37.3422,19.41369 7.5143,3.93381 14.4228,7.5896 21.3786,11.15274 31.6877,16.23212 63.4056,32.40552 95.0778,48.66782 14.943,7.67261 29.7496,15.61227 44.73052,23.20911 8.44464,4.28232 16.79547,9.15341 25.75525,11.93237 18.81989,5.83722 37.10712,3.93353 54.83185,-5.55777 25.51599,-13.66336 51.41541,-26.61407 77.2135,-39.74655 30.82071,-15.68933 61.7009,-31.26196 92.58359,-46.82907 1.56006,-0.78641 3.38776,-1.0419 5.09082,-1.54462 z"
   id="path1"
   style="fill:#4a4d53;fill-opacity:1" /></svg>
